#!OML:ASF E:\Steps\Project 1\Capture day 1\Session 2\Subject.ASF
:FULLY-SPECIFIED
:DEGREES
224
root 1.36682 16.8182 13.3207 -146.971 -18.7065 167.966
lowerback -27.4475 -7.46198 -11.9016
upperback -3.03962 -6.98924 -3.98141
thorax 11.6626 -4.19968 -0.542983
lowerneck -3.59398 -5.02695 -3.53094
upperneck 28.3578 -10.3418 1.63786
head 9.83083 -6.02803 0.0216784
rclavicle 1.19271e-014 -3.02153e-014
rhumerus -66.0924 -21.6149 -57.4484
rradius 27.3483
rwrist 8.59297
rhand -3.85253 -53.1031
rfingers 7.12502
rthumb 21.8956 -81.8842
lclavicle 1.19271e-014 -3.02153e-014
lhumerus -40.8204 -18.2673 66.1236
lradius 51.7111
lwrist 9.89426
lhand -22.6419 -13.4027
lfingers 7.12502
lthumb 3.7889 16.5433
rfemur -40.7569 4.68796 -14.6125
rtibia 7.88607
rfoot -8.58489 -31.4258
rtoes -14.029
lfemur -17.2228 -18.6093 -14.9316
ltibia 40.1311
lfoot -30.5516 -13.7939
ltoes -18.1309
225
root 1.40149 16.8178 13.264 -146.424 -17.4391 167.945
lowerback -27.1117 -7.16356 -11.1992
upperback -3.76083 -6.94421 -3.9229
thorax 11.4201 -4.13306 -0.786763
lowerneck -3.61986 -4.92799 -3.84569
upperneck 28.7011 -10.302 1.6245
head 9.97692 -6.07182 0.0561651
rclavicle -2.28602e-014 2.38542e-015
rhumerus -65.5395 -21.6848 -57.3789
rradius 27.6364
rwrist 9.32468
rhand -4.42585 -53.5608
rfingers 7.12502
rthumb 21.345 -82.4052
lclavicle -2.28602e-014 2.38542e-015
lhumerus -41.4318 -17.2027 66.161
lradius 51.1905
lwrist 10.6507
lhand -22.7717 -13.2574
lfingers 7.12502
lthumb 3.66352 16.6908
rfemur -42.1198 4.03511 -14.4842
rtibia 8.31888
rfoot -8.1134 -30.2439
rtoes -14.7067
lfemur -17.6211 -18.1106 -15.1941
ltibia 40.2655
lfoot -30.1799 -13.6372
ltoes -18.8917
226
root 1.43131 16.8269 13.2121 -146.009 -16.1892 167.967
lowerback -26.7061 -7.00467 -10.5906
upperback -3.98616 -7.02017 -3.78147
thorax 10.9111 -4.14512 -0.909618
lowerneck -3.67625 -4.69602 -3.80422
upperneck 28.6173 -9.82966 1.11932
head 9.90868 -5.902 -0.0755917
rclavicle -3.71727e-014 -3.33958e-014
rhumerus -64.5133 -21.2937 -58.0899
rradius 28.0328
rwrist 9.38212
rhand -5.44657 -54.1375
rfingers 7.12502
rthumb 20.3643 -83.0898
lclavicle -3.71727e-014 -3.33958e-014
lhumerus -41.9142 -15.8749 66.1123
lradius 50.6082
lwrist 11.8441
lhand -22.431 -12.5607
lfingers 7.12502
lthumb 3.99254 17.3816
rfemur -43.18 3.48512 -14.291
rtibia 8.46375
rfoot -7.29257 -29.0236
rtoes -15.9305
lfemur -17.7365 -17.6819 -15.5074
ltibia 40.0884
lfoot -29.6477 -13.3703
ltoes -19.2268
227
root 1.45901 16.8473 13.1665 -145.768 -14.9671 167.985
lowerback -25.9478 -6.81174 -9.94162
upperback -4.18437 -7.08595 -3.73046
thorax 10.2378 -4.15032 -1.11281
lowerneck -2.89977 -4.17178 -3.1626
upperneck 27.2972 -8.67296 0.243519
head 9.17549 -5.35542 -0.285547
rclavicle -3.57812e-015 1.19271e-014
rhumerus -63.5539 -20.8202 -59.1854
rradius 28.654
rwrist 9.00238
rhand -6.29096 -54.9195
rfingers 7.12502
rthumb 19.5526 -83.9563
lclavicle -3.57812e-015 1.19271e-014
lhumerus -42.1573 -14.5641 65.9817
lradius 49.6907
lwrist 12.654
lhand -22.2247 -11.7421
lfingers 7.12502
lthumb 4.19176 18.1964
rfemur -44.618 2.94598 -13.8978
rtibia 9.85592
rfoot -7.54419 -27.5084
rtoes -16.5276
lfemur -17.5986 -17.2967 -15.9215
ltibia 39.7716
lfoot -29.0793 -13.066
ltoes -19.3033
228
root 1.48703 16.8735 13.121 -145.545 -13.8192 167.96
lowerback -26.1906 -6.81551 -9.67045
upperback -3.60406 -6.99289 -3.5192
thorax 11.037 -4.06715 -1.07464
lowerneck -3.24089 -4.22465 -3.10894
upperneck 26.7942 -8.57028 0.14144
head 9.05016 -5.26199 -0.312473
rclavicle -6.75868e-014 -7.71285e-014
rhumerus -61.5652 -20.8855 -60.5713
rradius 29.3887
rwrist 8.38118
rhand -6.79468 -55.5421
rfingers 7.12502
rthumb 19.0683 -84.6274
lclavicle -6.75868e-014 -7.71285e-014
lhumerus -41.0699 -13.0609 65.9373
lradius 48.5893
lwrist 13.4826
lhand -22.0635 -11.2288
lfingers 7.12502
lthumb 4.34744 18.7066
rfemur -45.2928 3.06546 -13.9758
rtibia 9.79386
rfoot -7.45172 -26.9022
rtoes -16.2109
lfemur -17.3181 -16.986 -16.389
ltibia 39.2404
lfoot -28.5688 -12.6675
ltoes -19.4872
229
root 1.51396 16.901 13.0713 -145.231 -12.782 167.899
lowerback -26.3991 -6.85293 -9.23091
upperback -3.1426 -7.03659 -3.39631
thorax 11.661 -4.04658 -1.26192
lowerneck -3.19475 -4.14436 -3.20189
upperneck 25.3717 -8.1041 0.162711
head 8.53961 -4.96188 -0.195863
rclavicle -2.62396e-014 -1.11319e-014
rhumerus -59.6764 -20.5492 -62.2326
rradius 30.1716
rwrist 7.55832
rhand -7.28115 -55.7617
rfingers 7.12502
rthumb 18.6004 -84.8924
lclavicle -2.62396e-014 -1.11319e-014
lhumerus -40.4303 -11.9907 65.8038
lradius 47.807
lwrist 14.5632
lhand -21.8422 -11.031
lfingers 7.12502
lthumb 4.56118 18.8999
rfemur -46.0285 3.18855 -14.0729
rtibia 9.84732
rfoot -7.13926 -26.5065
rtoes -16.8304
lfemur -17.005 -16.5906 -16.7966
ltibia 38.4378
lfoot -27.8984 -12.3181
ltoes -21.1041
230
root 1.54095 16.9312 13.0199 -144.877 -11.9121 167.812
lowerback -26.0698 -6.96597 -8.93271
upperback -3.04734 -7.2847 -3.13573
thorax 11.6219 -4.13691 -1.19297
lowerneck -3.25548 -6.56659 -3.15204
upperneck 24.7807 -6.70088 -0.917602
head 8.29402 -2.84493 -0.212505
rclavicle 5.1684e-015 4.53229e-014
rhumerus -58.2823 -19.4576 -63.7848
rradius 31.2323
rwrist 6.24837
rhand -7.74419 -55.2902
rfingers 7.12502
rthumb 18.155 -84.463
lclavicle 5.1684e-015 4.53229e-014
lhumerus -40.5762 -11.2775 65.9729
lradius 47.2033
lwrist 15.0628
lhand -21.8355 -11.1857
lfingers 7.12502
lthumb 4.56761 18.745
rfemur -46.6266 3.41606 -14.256
rtibia 9.72144
rfoot -6.66728 -26.3135
rtoes -17.4115
lfemur -16.7793 -16.1702 -17.1126
ltibia 37.6264
lfoot -27.0554 -12.0512
ltoes -23.6205
231
root 1.57048 16.9644 12.9657 -144.579 -11.3674 167.674
lowerback -25.631 -7.23024 -8.73618
upperback -2.91778 -7.70536 -2.79711
thorax 11.5995 -4.30854 -1.03612
lowerneck -3.36133 -6.22175 -3.17411
upperneck 24.1833 -6.2273 -1.30456
head 8.09165 -2.69712 -0.297552
rclavicle 8.90555e-014 4.29375e-014
rhumerus -56.9559 -18.2127 -65.2981
rradius 32.4376
rwrist 4.84283
rhand -7.80263 -54.3231
rfingers 7.12502
rthumb 18.0987 -83.5011
lclavicle 8.90555e-014 4.29375e-014
lhumerus -40.8725 -10.7931 66.3004
lradius 46.674
lwrist 14.7573
lhand -22.3523 -11.4969
lfingers 7.12502
lthumb 4.06861 18.444
rfemur -46.847 3.75203 -14.4972
rtibia 9.33336
rfoot -6.15699 -26.3817
rtoes -18.1238
lfemur -16.6328 -15.9965 -17.3433
ltibia 37.0397
lfoot -26.2734 -11.806
ltoes -25.2327
232
root 1.59907 16.996 12.9082 -144.256 -10.9761 167.544
lowerback -25.1281 -7.54275 -8.51461
upperback -2.86247 -8.21685 -2.40043
thorax 11.4699 -4.5244 -0.84483
lowerneck -3.447 -5.87739 -3.32602
upperneck 23.5775 -5.76055 -1.59937
head 7.89483 -2.55017 -0.330526
rclavicle -2.64384e-014 -3.77691e-014
rhumerus -55.8572 -16.8732 -66.5961
rradius 33.6892
rwrist 3.29878
rhand -7.77492 -53.5651
rfingers 7.12502
rthumb 18.1254 -82.7406
lclavicle -2.64384e-014 -3.77691e-014
lhumerus -41.2111 -10.3095 66.6724
lradius 46.5679
lwrist 14.8129
lhand -21.9359 -10.3891
lfingers 7.12502
lthumb 4.47069 19.5437
rfemur -46.9989 4.00193 -14.6097
rtibia 9.02134
rfoot -5.6032 -26.5366
rtoes -19.5599
lfemur -16.522 -15.8517 -17.5201
ltibia 36.5417
lfoot -25.5825 -11.5562
ltoes -26.2339
233
root 1.63029 17.0213 12.8574 -143.565 -10.7025 167.341
lowerback -24.5779 -7.92229 -8.41381
upperback -3.26741 -8.88539 -1.87811
thorax 10.8331 -4.84261 -0.453182
lowerneck -2.50681 -5.41941 -3.75642
upperneck 22.5369 -5.14475 -1.77574
head 7.38612 -2.31966 -0.234948
rclavicle -3.56818e-014 -1.98785e-015
rhumerus -55.5535 -15.0601 -67.5733
rradius 35.1756
rwrist 1.47872
rhand -8.13644 -52.9854
rfingers 7.12502
rthumb 17.7775 -82.1928
lclavicle -3.56818e-014 -1.98785e-015
lhumerus -42.0417 -10.1763 67.3145
lradius 46.3153
lwrist 14.4731
lhand -21.4816 -10.7236
lfingers 7.12502
lthumb 4.90937 19.1995
rfemur -47.4957 4.13891 -14.9832
rtibia 8.87577
rfoot -5.32146 -27.0823
rtoes -20.5813
lfemur -16.9341 -15.5618 -17.5466
ltibia 36.1986
lfoot -25.0028 -11.414
ltoes -27.0676
234
root 1.66147 17.0454 12.8019 -142.93 -10.6011 166.992
lowerback -24.4275 -8.50977 -8.40032
upperback -3.62578 -9.76229 -1.37064
thorax 10.4982 -5.26549 -0.167756
lowerneck -0.448589 -4.67794 -4.30882
upperneck 20.7565 -4.23118 -1.9032
head 6.45179 -1.92474 -0.0623817
rclavicle -1.83876e-014 -2.62396e-014
rhumerus -55.4811 -12.9278 -68.6626
rradius 36.7051
rwrist -0.126932
rhand -8.17261 -52.5585
rfingers 7.12502
rthumb 17.7427 -81.769
lclavicle -1.83876e-014 -2.62396e-014
lhumerus -43.1013 -10.0294 67.8105
lradius 46.151
lwrist 13.7199
lhand -20.8134 -11.3428
lfingers 7.12502
lthumb 5.55454 18.5644
rfemur -47.7017 4.4939 -15.7237
rtibia 8.59152
rfoot -5.65803 -27.9274
rtoes -19.6946
lfemur -17.2558 -15.358 -17.6168
ltibia 35.7987
lfoot -24.4874 -11.3607
ltoes -27.884
